<?xml version="1.0" standalone="no"?>
<!DOCTYPE svg PUBLIC "-//W3C//DTD SVG 20010904//EN"
 "http://www.w3.org/TR/2001/REC-SVG-20010904/DTD/svg10.dtd">
<svg version="1.0" xmlns="http://www.w3.org/2000/svg"
 width="3750.000000pt" height="3750.000000pt" viewBox="0 0 3750.000000 3750.000000"
 preserveAspectRatio="xMidYMid meet">
<metadata>
Created by potrace 1.16, written by Peter Selinger 2001-2019
</metadata>
<g transform="translate(0.000000,3750.000000) scale(0.100000,-0.100000)"
fill="#000000" stroke="none">
<path d="M0 18745 l0 -18735 18730 0 18730 0 0 18735 0 18735 -18730 0 -18730
0 0 -18735z m17731 11924 c74 -35 132 -89 163 -152 l26 -51 0 -2926 c0 -3312
9 -2980 -86 -3075 -35 -36 -71 -60 -109 -74 -56 -21 -60 -21 -1335 -21 -704 0
-1280 -3 -1280 -8 0 -4 520 -569 1155 -1256 772 -835 1162 -1264 1177 -1295
18 -36 23 -63 23 -126 0 -70 -4 -87 -29 -133 -36 -65 -82 -107 -156 -141 l-55
-26 -4545 0 -4545 0 -55 26 c-74 34 -120 76 -156 141 l-29 53 -3 4417 -2 4417
21 55 c35 95 132 174 240 195 24 5 2165 8 4784 7 l4740 -1 56 -26z m11634 16
c111 -29 188 -96 226 -196 18 -48 19 -184 19 -4447 0 -2846 -4 -4409 -10
-4432 -27 -99 -120 -187 -225 -215 -55 -14 -471 -16 -4570 -13 l-4510 3 -55
26 c-74 34 -120 76 -156 141 -25 46 -29 63 -29 133 0 60 6 91 21 125 15 31
372 425 1173 1292 633 686 1151 1252 1151 1258 0 7 -406 10 -1275 10 -1265 0
-1275 0 -1330 21 -64 24 -140 93 -170 154 -20 39 -20 79 -23 2970 -2 3264 -9
2981 67 3067 45 50 121 95 183 107 24 5 2160 9 4748 10 4220 1 4712 -1 4765
-14z m-10392 -9359 c157 -46 269 -116 381 -237 203 -219 244 -541 104 -812
-33 -64 -63 -103 -138 -178 -84 -84 -107 -101 -200 -146 -148 -72 -215 -88
-385 -88 -148 0 -207 11 -327 59 -101 41 -170 88 -258 176 -96 96 -148 178
-187 295 -24 71 -27 95 -27 215 0 120 3 144 27 215 91 273 328 469 635 525 89
17 278 4 375 -24z m-1748 -1561 c180 -47 280 -212 230 -381 -8 -27 -25 -63
-37 -80 -13 -17 -536 -585 -1163 -1263 -627 -678 -1141 -1237 -1143 -1242 -2
-5 537 -10 1290 -11 l1293 -3 52 -27 c68 -36 120 -89 149 -152 l24 -51 0
-2930 0 -2930 -24 -50 c-27 -59 -99 -128 -164 -158 l-47 -22 -4775 0 -4775 0
-55 26 c-74 34 -120 76 -156 141 l-29 53 -3 4417 -2 4417 21 55 c22 59 85 133
138 160 90 47 -157 45 4626 45 4004 1 4497 -1 4550 -14z m12127 4 c112 -24
201 -97 237 -195 l21 -55 -2 -4417 -3 -4417 -29 -53 c-36 -65 -82 -107 -156
-141 l-55 -26 -4765 0 -4765 0 -47 22 c-64 29 -132 95 -163 156 l-25 51 0
2930 0 2931 24 51 c29 63 81 116 149 152 l52 27 1293 5 1293 5 -1158 1256
c-678 734 -1166 1272 -1177 1295 -29 62 -32 158 -6 226 23 61 86 135 139 162
90 47 -157 45 4613 45 3276 1 4491 -2 4530 -10z m-8093 -10776 c16 -35 721
-1701 732 -1730 l9 -23 -261 0 -260 0 -13 33 c-8 17 -37 89 -66 160 l-52 127
-342 -2 -341 -3 -64 -157 -63 -158 -254 0 c-140 0 -254 2 -254 4 0 2 162 388
361 857 198 470 367 869 374 887 l14 32 234 0 234 0 12 -27z m-9273 7 c451
-34 750 -250 856 -617 31 -106 33 -379 4 -488 -97 -366 -395 -598 -828 -645
-54 -5 -259 -10 -458 -10 l-360 0 0 885 0 885 328 0 c180 0 386 -5 458 -10z
m3194 -200 l0 -210 -470 0 -470 0 0 -135 0 -135 425 0 425 0 0 -190 0 -190
-425 0 -425 0 0 -145 0 -145 475 0 475 0 0 -205 0 -205 -715 0 -715 0 0 885 0
885 710 0 710 0 0 -210z m3675 186 c155 -35 291 -131 341 -241 97 -210 18
-450 -182 -556 l-42 -23 91 -44 c107 -52 176 -117 215 -200 25 -53 27 -66 27
-192 0 -124 -2 -139 -26 -190 -75 -160 -251 -263 -494 -290 -49 -5 -305 -10
-567 -10 l-478 0 0 886 0 886 523 -5 c433 -4 534 -7 592 -21z m5185 -191 l0
-215 -265 0 -265 0 0 -670 0 -670 -245 0 -245 0 0 670 0 670 -265 0 -265 0 0
215 0 215 775 0 775 0 0 -215z m2260 5 l0 -210 -470 0 -470 0 0 -135 0 -135
425 0 425 0 0 -190 0 -190 -425 0 -425 0 0 -145 0 -145 475 0 475 0 0 -205 0
-205 -715 0 -715 0 0 885 0 885 710 0 710 0 0 -210z m-17320 -845 l-150 -150
-152 152 -153 153 150 150 150 150 152 -152 153 -153 -150 -150z m19845 5
l-150 -150 -150 150 -150 150 150 150 150 150 150 -150 150 -150 -150 -150z
m-11985 70 l0 -210 -415 0 -415 0 0 210 0 210 415 0 415 0 0 -210z"/>
<path d="M8550 26040 l0 -4040 3932 0 3931 0 -54 58 c-30 31 -547 589 -1149
1240 -843 911 -1103 1198 -1128 1245 -32 59 -34 66 -30 143 3 64 10 90 31 126
33 57 96 114 156 142 l46 21 1488 3 1487 2 0 2550 0 2550 -4355 0 -4355 0 0
-4040z m6950 2090 c294 -71 525 -297 585 -574 23 -105 16 -273 -15 -366 -66
-197 -202 -350 -395 -445 -103 -52 -175 -72 -295 -84 -345 -36 -677 139 -820
434 -51 104 -70 187 -70 310 0 123 19 206 70 310 98 201 286 352 513 410 124
32 303 34 427 5z"/>
<path d="M20260 27530 l0 -2550 1463 0 c1604 0 1513 3 1608 -59 96 -64 150
-188 130 -298 -6 -31 -21 -73 -33 -94 -13 -21 -519 -575 -1124 -1231 -606
-656 -1123 -1217 -1149 -1245 l-47 -53 3921 0 3921 0 0 4040 0 4040 -4345 0
-4345 0 0 -2550z m2259 582 c120 -41 209 -94 299 -177 417 -387 259 -1050
-295 -1235 -230 -76 -502 -49 -708 72 -84 50 -226 190 -273 270 -105 178 -127
402 -58 599 68 195 243 374 444 452 126 48 181 57 347 53 138 -2 158 -5 244
-34z"/>
<path d="M8550 15120 l0 -4040 4355 0 4355 0 0 2550 0 2550 -1492 2 -1493 3
-52 27 c-113 60 -173 154 -173 273 0 53 6 82 24 120 17 38 305 355 1156 1275
623 674 1144 1237 1158 1253 l26 27 -3932 0 -3932 0 0 -4040z m6867 -611 c327
-44 602 -285 669 -587 24 -110 16 -272 -20 -377 -107 -314 -417 -525 -771
-525 -290 0 -543 134 -696 367 -69 106 -100 209 -107 350 -6 141 13 231 75
356 37 73 63 108 132 178 192 193 442 276 718 238z"/>
<path d="M21126 19138 c21 -24 2129 -2312 2232 -2422 35 -38 74 -90 85 -115
28 -63 28 -169 -1 -233 -26 -59 -93 -127 -157 -159 l-50 -24 -1487 -3 -1488
-2 0 -2550 0 -2550 4345 0 4345 0 0 4040 0 4040 -3922 0 -3921 0 19 -22z
m1339 -4647 c44 -11 123 -42 175 -68 81 -40 109 -62 196 -148 83 -83 107 -114
142 -185 54 -111 75 -201 75 -325 0 -366 -278 -673 -667 -736 -93 -14 -267 -7
-350 16 -82 22 -166 57 -233 96 -77 46 -212 181 -255 256 -187 319 -116 703
171 934 206 167 484 226 746 160z"/>
<path d="M20913 8198 c-51 -128 -95 -241 -99 -250 -6 -17 7 -18 188 -18 107 0
197 2 200 5 6 6 -184 495 -192 495 -3 0 -47 -105 -97 -232z"/>
<path d="M11685 8569 c-3 -8 -4 -212 -3 -454 l3 -440 155 1 c166 0 226 11 323
60 232 118 287 492 102 692 -97 105 -196 140 -422 149 -126 5 -153 4 -158 -8z"/>
<path d="M18218 8614 c-5 -4 -8 -76 -8 -161 l0 -153 180 0 c208 0 268 10 316
52 62 54 67 153 11 206 -51 48 -90 56 -297 60 -107 2 -198 0 -202 -4z"/>
<path d="M18210 7795 l0 -167 238 4 c230 3 239 4 286 28 61 31 87 64 93 122 8
66 -23 119 -84 149 -46 23 -59 24 -290 27 l-243 3 0 -166z"/>
</g>
</svg>
